<svg width="340" height="296" viewBox="0 0 340 296" fill="none" xmlns="http://www.w3.org/2000/svg">
<g filter="url(#filter0_b_135_259)">
<path d="M0 13.0049C0 5.8225 5.8225 0 13.0049 0H326.995C334.178 0 340 5.8225 340 13.0049V282.995C340 290.177 334.177 296 326.995 296H13.0049C5.82249 296 0 290.177 0 282.995V13.0049Z" fill="white" fill-opacity="0.29"/>
</g>
<path opacity="0.2" d="M51 97V217" stroke="white"/>
<path opacity="0.2" d="M131 97V217" stroke="white"/>
<path opacity="0.2" d="M211 97V217" stroke="white"/>
<path opacity="0.2" d="M291 97V217" stroke="white"/>
<path d="M42.7999 260H44.4379V249.57H40.7979V250.97H42.7999V260ZM50.0044 260.168C50.7044 260.168 51.3297 260.014 51.8804 259.706C52.431 259.398 52.8604 258.978 53.1684 258.446C53.4857 257.914 53.6444 257.317 53.6444 256.654C53.6444 256.001 53.4997 255.417 53.2104 254.904C52.9304 254.381 52.5337 253.971 52.0204 253.672C51.5164 253.364 50.9237 253.21 50.2424 253.21C49.5424 253.21 48.9637 253.369 48.5064 253.686L48.8704 250.97H53.2524V249.57H47.6944L46.8824 255.31L48.2124 255.604C48.3617 255.305 48.595 255.067 48.9124 254.89C49.239 254.713 49.603 254.624 50.0044 254.624C50.583 254.624 51.059 254.815 51.4324 255.198C51.815 255.571 52.0064 256.057 52.0064 256.654C52.0064 257.251 51.815 257.741 51.4324 258.124C51.059 258.507 50.583 258.698 50.0044 258.698C49.519 258.698 49.0804 258.567 48.6884 258.306C48.2964 258.045 48.007 257.667 47.8204 257.172L46.4344 257.704C46.5837 258.208 46.831 258.647 47.1764 259.02C47.531 259.384 47.951 259.669 48.4364 259.874C48.931 260.07 49.4537 260.168 50.0044 260.168ZM58.0576 253.994C58.487 253.994 58.8743 253.891 59.2196 253.686C59.5743 253.481 59.8543 253.205 60.0596 252.86C60.265 252.515 60.3676 252.127 60.3676 251.698C60.3676 251.269 60.265 250.881 60.0596 250.536C59.8543 250.191 59.5743 249.915 59.2196 249.71C58.8743 249.505 58.487 249.402 58.0576 249.402C57.6283 249.402 57.2363 249.505 56.8816 249.71C56.5363 249.915 56.261 250.191 56.0556 250.536C55.8503 250.881 55.7476 251.269 55.7476 251.698C55.7476 252.127 55.8503 252.515 56.0556 252.86C56.261 253.205 56.5363 253.481 56.8816 253.686C57.2363 253.891 57.6283 253.994 58.0576 253.994ZM58.0436 252.86C57.7263 252.86 57.451 252.753 57.2176 252.538C56.9936 252.323 56.8816 252.043 56.8816 251.698C56.8816 251.362 56.9936 251.087 57.2176 250.872C57.451 250.648 57.7263 250.536 58.0436 250.536C58.3703 250.536 58.6456 250.648 58.8696 250.872C59.103 251.087 59.2196 251.362 59.2196 251.698C59.2196 252.043 59.103 252.323 58.8696 252.538C58.6456 252.753 58.3703 252.86 58.0436 252.86Z" fill="#24609B"/>
<path d="M29.3587 232H30.3187V224.908L33.2947 229.24H33.3427L36.3187 224.932V232H37.2787V223.06H36.4387L33.3187 227.596L30.1987 223.06H29.3587V232ZM42.27 232.144C42.87 232.144 43.414 232 43.902 231.712C44.398 231.424 44.794 231.028 45.09 230.524C45.386 230.012 45.534 229.428 45.534 228.772C45.534 228.124 45.39 227.548 45.102 227.044C44.822 226.54 44.434 226.144 43.938 225.856C43.45 225.568 42.894 225.424 42.27 225.424C41.646 225.424 41.086 225.572 40.59 225.868C40.102 226.156 39.714 226.552 39.426 227.056C39.138 227.56 38.994 228.132 38.994 228.772C38.994 229.42 39.138 230 39.426 230.512C39.722 231.016 40.118 231.416 40.614 231.712C41.11 232 41.662 232.144 42.27 232.144ZM42.27 231.244C41.838 231.244 41.446 231.136 41.094 230.92C40.75 230.704 40.474 230.408 40.266 230.032C40.058 229.656 39.954 229.236 39.954 228.772C39.954 228.308 40.058 227.892 40.266 227.524C40.474 227.156 40.75 226.864 41.094 226.648C41.446 226.432 41.838 226.324 42.27 226.324C42.702 226.324 43.09 226.432 43.434 226.648C43.786 226.864 44.062 227.156 44.262 227.524C44.47 227.892 44.574 228.308 44.574 228.772C44.574 229.236 44.47 229.656 44.262 230.032C44.062 230.408 43.786 230.704 43.434 230.92C43.09 231.136 42.702 231.244 42.27 231.244ZM47.1213 232H48.0213V228.04C48.0213 227.512 48.1613 227.104 48.4413 226.816C48.7213 226.528 49.0933 226.384 49.5573 226.384H50.1213V225.484H49.7133C49.3213 225.484 48.9813 225.552 48.6933 225.688C48.4133 225.824 48.1893 226.016 48.0213 226.264V225.568H47.1213V232ZM51.176 232H52.076V228.172C52.076 227.596 52.236 227.144 52.556 226.816C52.876 226.488 53.28 226.324 53.768 226.324C54.264 226.324 54.664 226.488 54.968 226.816C55.28 227.136 55.436 227.588 55.436 228.172V232H56.336V227.824C56.336 227.368 56.228 226.96 56.012 226.6C55.804 226.232 55.516 225.944 55.148 225.736C54.788 225.528 54.38 225.424 53.924 225.424C53.524 225.424 53.164 225.508 52.844 225.676C52.524 225.844 52.268 226.072 52.076 226.36V225.568H51.176V232ZM58.0549 224.38H58.9549V223.06H58.0549V224.38ZM58.0549 232H58.9549V225.568H58.0549V232ZM60.797 232H61.697V228.172C61.697 227.596 61.857 227.144 62.177 226.816C62.497 226.488 62.901 226.324 63.389 226.324C63.885 226.324 64.285 226.488 64.589 226.816C64.901 227.136 65.057 227.588 65.057 228.172V232H65.957V227.824C65.957 227.368 65.849 226.96 65.633 226.6C65.425 226.232 65.137 225.944 64.769 225.736C64.409 225.528 64.001 225.424 63.545 225.424C63.145 225.424 62.785 225.508 62.465 225.676C62.145 225.844 61.889 226.072 61.697 226.36V225.568H60.797V232ZM70.724 234.64C71.316 234.64 71.84 234.512 72.296 234.256C72.76 234.008 73.12 233.664 73.376 233.224C73.64 232.792 73.772 232.3 73.772 231.748V225.568H72.872V226.54C72.616 226.196 72.288 225.924 71.888 225.724C71.488 225.524 71.052 225.424 70.58 225.424C69.972 225.424 69.428 225.568 68.948 225.856C68.476 226.144 68.1 226.532 67.82 227.02C67.548 227.508 67.412 228.056 67.412 228.664C67.412 229.264 67.548 229.812 67.82 230.308C68.1 230.796 68.48 231.184 68.96 231.472C69.44 231.76 69.98 231.904 70.58 231.904C71.052 231.904 71.492 231.8 71.9 231.592C72.308 231.384 72.632 231.092 72.872 230.716V231.748C72.872 232.18 72.772 232.544 72.572 232.84C72.372 233.136 72.108 233.36 71.78 233.512C71.452 233.664 71.092 233.74 70.7 233.74C70.188 233.74 69.768 233.628 69.44 233.404C69.112 233.18 68.884 232.916 68.756 232.612L67.928 233.056C68.144 233.52 68.496 233.9 68.984 234.196C69.48 234.492 70.06 234.64 70.724 234.64ZM70.628 231.004C70.196 231.004 69.808 230.9 69.464 230.692C69.128 230.476 68.86 230.192 68.66 229.84C68.468 229.48 68.372 229.088 68.372 228.664C68.372 228.232 68.468 227.84 68.66 227.488C68.86 227.136 69.132 226.856 69.476 226.648C69.82 226.432 70.204 226.324 70.628 226.324C71.044 226.324 71.42 226.432 71.756 226.648C72.092 226.856 72.36 227.14 72.56 227.5C72.768 227.852 72.872 228.24 72.872 228.664C72.872 229.088 72.768 229.48 72.56 229.84C72.36 230.192 72.092 230.476 71.756 230.692C71.42 230.9 71.044 231.004 70.628 231.004Z" fill="#24609B"/>
<path d="M122.581 260H124.219V249.57H120.579V250.97H122.581V260ZM131.116 260H132.684V257.648H134.126V256.276H132.684V249.57H131.046L126.146 256.276V257.648H131.116V260ZM131.116 256.276H127.798L131.116 251.656V256.276ZM138.276 253.994C138.706 253.994 139.093 253.891 139.438 253.686C139.793 253.481 140.073 253.205 140.278 252.86C140.484 252.515 140.586 252.127 140.586 251.698C140.586 251.269 140.484 250.881 140.278 250.536C140.073 250.191 139.793 249.915 139.438 249.71C139.093 249.505 138.706 249.402 138.276 249.402C137.847 249.402 137.455 249.505 137.1 249.71C136.755 249.915 136.48 250.191 136.274 250.536C136.069 250.881 135.966 251.269 135.966 251.698C135.966 252.127 136.069 252.515 136.274 252.86C136.48 253.205 136.755 253.481 137.1 253.686C137.455 253.891 137.847 253.994 138.276 253.994ZM138.262 252.86C137.945 252.86 137.67 252.753 137.436 252.538C137.212 252.323 137.1 252.043 137.1 251.698C137.1 251.362 137.212 251.087 137.436 250.872C137.67 250.648 137.945 250.536 138.262 250.536C138.589 250.536 138.864 250.648 139.088 250.872C139.322 251.087 139.438 251.362 139.438 251.698C139.438 252.043 139.322 252.323 139.088 252.538C138.864 252.753 138.589 252.86 138.262 252.86Z" fill="#24609B"/>
<path d="M106.183 232H107.191L107.971 229.816H111.967L112.735 232H113.743L110.479 223.06H109.447L106.183 232ZM108.283 228.916L109.963 224.188L111.631 228.916H108.283ZM115.229 232H116.129V226.468H117.701V225.568H116.129V224.992C116.129 224.536 116.257 224.216 116.513 224.032C116.769 223.848 117.089 223.756 117.473 223.756C117.513 223.756 117.581 223.76 117.677 223.768C117.773 223.768 117.849 223.776 117.905 223.792V222.976C117.841 222.96 117.757 222.948 117.653 222.94C117.549 222.924 117.457 222.916 117.377 222.916C117.001 222.916 116.649 222.996 116.321 223.156C115.993 223.316 115.729 223.552 115.529 223.864C115.329 224.168 115.229 224.544 115.229 224.992V225.568H113.945V226.468H115.229V232ZM121.857 232.072C121.929 232.072 122.025 232.068 122.145 232.06C122.265 232.052 122.373 232.036 122.469 232.012V231.196C122.405 231.204 122.329 231.212 122.241 231.22C122.153 231.228 122.077 231.232 122.013 231.232C121.613 231.232 121.337 231.128 121.185 230.92C121.033 230.712 120.957 230.448 120.957 230.128V226.468H122.373V225.568H120.957V224.08H120.057V224.62C120.057 224.892 119.977 225.12 119.817 225.304C119.657 225.48 119.441 225.568 119.169 225.568H118.869V226.468H120.057V230.128C120.057 230.752 120.213 231.232 120.525 231.568C120.837 231.904 121.281 232.072 121.857 232.072ZM126.743 232.144C127.183 232.144 127.583 232.072 127.943 231.928C128.311 231.776 128.627 231.58 128.891 231.34C129.155 231.092 129.351 230.824 129.479 230.536L128.711 230.128C128.511 230.464 128.251 230.744 127.931 230.968C127.611 231.192 127.215 231.304 126.743 231.304C126.359 231.304 125.999 231.212 125.663 231.028C125.327 230.844 125.051 230.588 124.835 230.26C124.627 229.924 124.515 229.524 124.499 229.06H129.563C129.579 228.956 129.591 228.856 129.599 228.76C129.607 228.656 129.611 228.564 129.611 228.484C129.611 228.1 129.543 227.728 129.407 227.368C129.271 227 129.075 226.672 128.819 226.384C128.563 226.088 128.251 225.856 127.883 225.688C127.523 225.512 127.111 225.424 126.647 225.424C126.063 225.424 125.535 225.568 125.063 225.856C124.599 226.144 124.231 226.54 123.959 227.044C123.687 227.54 123.551 228.112 123.551 228.76C123.551 229.408 123.691 229.988 123.971 230.5C124.251 231.012 124.631 231.416 125.111 231.712C125.599 232 126.143 232.144 126.743 232.144ZM126.647 226.264C127.007 226.264 127.335 226.348 127.631 226.516C127.935 226.684 128.175 226.916 128.351 227.212C128.535 227.5 128.631 227.836 128.639 228.22H124.523C124.571 227.82 124.695 227.476 124.895 227.188C125.103 226.892 125.359 226.664 125.663 226.504C125.967 226.344 126.295 226.264 126.647 226.264ZM131.197 232H132.097V228.04C132.097 227.512 132.237 227.104 132.517 226.816C132.797 226.528 133.169 226.384 133.633 226.384H134.197V225.484H133.789C133.397 225.484 133.057 225.552 132.769 225.688C132.489 225.824 132.265 226.016 132.097 226.264V225.568H131.197V232ZM135.252 232H136.152V228.172C136.152 227.596 136.312 227.144 136.632 226.816C136.952 226.488 137.356 226.324 137.844 226.324C138.34 226.324 138.74 226.488 139.044 226.816C139.356 227.136 139.512 227.588 139.512 228.172V232H140.412V227.824C140.412 227.368 140.304 226.96 140.088 226.6C139.88 226.232 139.592 225.944 139.224 225.736C138.864 225.528 138.456 225.424 138 225.424C137.6 225.424 137.24 225.508 136.92 225.676C136.6 225.844 136.344 226.072 136.152 226.36V225.568H135.252V232ZM145.143 232.144C145.743 232.144 146.287 232 146.775 231.712C147.271 231.424 147.667 231.028 147.963 230.524C148.259 230.012 148.407 229.428 148.407 228.772C148.407 228.124 148.263 227.548 147.975 227.044C147.695 226.54 147.307 226.144 146.811 225.856C146.323 225.568 145.767 225.424 145.143 225.424C144.519 225.424 143.959 225.572 143.463 225.868C142.975 226.156 142.587 226.552 142.299 227.056C142.011 227.56 141.867 228.132 141.867 228.772C141.867 229.42 142.011 230 142.299 230.512C142.595 231.016 142.991 231.416 143.487 231.712C143.983 232 144.535 232.144 145.143 232.144ZM145.143 231.244C144.711 231.244 144.319 231.136 143.967 230.92C143.623 230.704 143.347 230.408 143.139 230.032C142.931 229.656 142.827 229.236 142.827 228.772C142.827 228.308 142.931 227.892 143.139 227.524C143.347 227.156 143.623 226.864 143.967 226.648C144.319 226.432 144.711 226.324 145.143 226.324C145.575 226.324 145.963 226.432 146.307 226.648C146.659 226.864 146.935 227.156 147.135 227.524C147.343 227.892 147.447 228.308 147.447 228.772C147.447 229.236 147.343 229.656 147.135 230.032C146.935 230.408 146.659 230.704 146.307 230.92C145.963 231.136 145.575 231.244 145.143 231.244ZM149.994 232H150.894V228.172C150.894 227.596 151.054 227.144 151.374 226.816C151.694 226.488 152.098 226.324 152.586 226.324C153.082 226.324 153.482 226.488 153.786 226.816C154.098 227.136 154.254 227.588 154.254 228.172V232H155.154V227.824C155.154 227.368 155.046 226.96 154.83 226.6C154.622 226.232 154.334 225.944 153.966 225.736C153.606 225.528 153.198 225.424 152.742 225.424C152.342 225.424 151.982 225.508 151.662 225.676C151.342 225.844 151.086 226.072 150.894 226.36V225.568H149.994V232Z" fill="#24609B"/>
<path d="M203.471 260H205.109V249.57H201.469V250.97H203.471V260ZM210.567 260.168C211.248 260.168 211.855 260.019 212.387 259.72C212.919 259.421 213.339 259.015 213.647 258.502C213.955 257.979 214.109 257.391 214.109 256.738C214.109 256.094 213.964 255.525 213.675 255.03C213.395 254.526 213.007 254.134 212.513 253.854C212.018 253.565 211.458 253.42 210.833 253.42C210.59 253.42 210.371 253.448 210.175 253.504L213.213 249.57H211.239L208.327 253.392C207.832 254.036 207.491 254.619 207.305 255.142C207.127 255.665 207.039 256.187 207.039 256.71C207.039 257.373 207.188 257.965 207.487 258.488C207.795 259.011 208.215 259.421 208.747 259.72C209.279 260.019 209.885 260.168 210.567 260.168ZM210.567 258.698C210.212 258.698 209.89 258.614 209.601 258.446C209.321 258.278 209.097 258.049 208.929 257.76C208.761 257.461 208.677 257.125 208.677 256.752C208.677 256.183 208.854 255.721 209.209 255.366C209.573 255.002 210.025 254.82 210.567 254.82C211.108 254.82 211.556 255.002 211.911 255.366C212.275 255.721 212.457 256.183 212.457 256.752C212.457 257.321 212.275 257.788 211.911 258.152C211.556 258.516 211.108 258.698 210.567 258.698ZM218.387 253.994C218.816 253.994 219.203 253.891 219.549 253.686C219.903 253.481 220.183 253.205 220.389 252.86C220.594 252.515 220.697 252.127 220.697 251.698C220.697 251.269 220.594 250.881 220.389 250.536C220.183 250.191 219.903 249.915 219.549 249.71C219.203 249.505 218.816 249.402 218.387 249.402C217.957 249.402 217.565 249.505 217.211 249.71C216.865 249.915 216.59 250.191 216.385 250.536C216.179 250.881 216.077 251.269 216.077 251.698C216.077 252.127 216.179 252.515 216.385 252.86C216.59 253.205 216.865 253.481 217.211 253.686C217.565 253.891 217.957 253.994 218.387 253.994ZM218.373 252.86C218.055 252.86 217.78 252.753 217.547 252.538C217.323 252.323 217.211 252.043 217.211 251.698C217.211 251.362 217.323 251.087 217.547 250.872C217.78 250.648 218.055 250.536 218.373 250.536C218.699 250.536 218.975 250.648 219.199 250.872C219.432 251.087 219.549 251.362 219.549 251.698C219.549 252.043 219.432 252.323 219.199 252.538C218.975 252.753 218.699 252.86 218.373 252.86Z" fill="#24609B"/>
<path d="M189.427 232H195.187V231.1H190.387V227.968H194.947V227.068H190.387V223.96H195.187V223.06H189.427V232ZM198.359 232H199.259L201.791 225.568H200.771L198.815 230.776L196.859 225.568H195.851L198.359 232ZM205.653 232.144C206.093 232.144 206.493 232.072 206.853 231.928C207.221 231.776 207.537 231.58 207.801 231.34C208.065 231.092 208.261 230.824 208.389 230.536L207.621 230.128C207.421 230.464 207.161 230.744 206.841 230.968C206.521 231.192 206.125 231.304 205.653 231.304C205.269 231.304 204.909 231.212 204.573 231.028C204.237 230.844 203.961 230.588 203.745 230.26C203.537 229.924 203.425 229.524 203.409 229.06H208.473C208.489 228.956 208.501 228.856 208.509 228.76C208.517 228.656 208.521 228.564 208.521 228.484C208.521 228.1 208.453 227.728 208.317 227.368C208.181 227 207.985 226.672 207.729 226.384C207.473 226.088 207.161 225.856 206.793 225.688C206.433 225.512 206.021 225.424 205.557 225.424C204.973 225.424 204.445 225.568 203.973 225.856C203.509 226.144 203.141 226.54 202.869 227.044C202.597 227.54 202.461 228.112 202.461 228.76C202.461 229.408 202.601 229.988 202.881 230.5C203.161 231.012 203.541 231.416 204.021 231.712C204.509 232 205.053 232.144 205.653 232.144ZM205.557 226.264C205.917 226.264 206.245 226.348 206.541 226.516C206.845 226.684 207.085 226.916 207.261 227.212C207.445 227.5 207.541 227.836 207.549 228.22H203.433C203.481 227.82 203.605 227.476 203.805 227.188C204.013 226.892 204.269 226.664 204.573 226.504C204.877 226.344 205.205 226.264 205.557 226.264ZM210.108 232H211.008V228.172C211.008 227.596 211.168 227.144 211.488 226.816C211.808 226.488 212.212 226.324 212.7 226.324C213.196 226.324 213.596 226.488 213.9 226.816C214.212 227.136 214.368 227.588 214.368 228.172V232H215.268V227.824C215.268 227.368 215.16 226.96 214.944 226.6C214.736 226.232 214.448 225.944 214.08 225.736C213.72 225.528 213.312 225.424 212.856 225.424C212.456 225.424 212.096 225.508 211.776 225.676C211.456 225.844 211.2 226.072 211.008 226.36V225.568H210.108V232ZM216.987 224.38H217.887V223.06H216.987V224.38ZM216.987 232H217.887V225.568H216.987V232ZM219.729 232H220.629V228.172C220.629 227.596 220.789 227.144 221.109 226.816C221.429 226.488 221.833 226.324 222.321 226.324C222.817 226.324 223.217 226.488 223.521 226.816C223.833 227.136 223.989 227.588 223.989 228.172V232H224.889V227.824C224.889 227.368 224.781 226.96 224.565 226.6C224.357 226.232 224.069 225.944 223.701 225.736C223.341 225.528 222.933 225.424 222.477 225.424C222.077 225.424 221.717 225.508 221.397 225.676C221.077 225.844 220.821 226.072 220.629 226.36V225.568H219.729V232ZM229.656 234.64C230.248 234.64 230.772 234.512 231.228 234.256C231.692 234.008 232.052 233.664 232.308 233.224C232.572 232.792 232.704 232.3 232.704 231.748V225.568H231.804V226.54C231.548 226.196 231.22 225.924 230.82 225.724C230.42 225.524 229.984 225.424 229.512 225.424C228.904 225.424 228.36 225.568 227.88 225.856C227.408 226.144 227.032 226.532 226.752 227.02C226.48 227.508 226.344 228.056 226.344 228.664C226.344 229.264 226.48 229.812 226.752 230.308C227.032 230.796 227.412 231.184 227.892 231.472C228.372 231.76 228.912 231.904 229.512 231.904C229.984 231.904 230.424 231.8 230.832 231.592C231.24 231.384 231.564 231.092 231.804 230.716V231.748C231.804 232.18 231.704 232.544 231.504 232.84C231.304 233.136 231.04 233.36 230.712 233.512C230.384 233.664 230.024 233.74 229.632 233.74C229.12 233.74 228.7 233.628 228.372 233.404C228.044 233.18 227.816 232.916 227.688 232.612L226.86 233.056C227.076 233.52 227.428 233.9 227.916 234.196C228.412 234.492 228.992 234.64 229.656 234.64ZM229.56 231.004C229.128 231.004 228.74 230.9 228.396 230.692C228.06 230.476 227.792 230.192 227.592 229.84C227.4 229.48 227.304 229.088 227.304 228.664C227.304 228.232 227.4 227.84 227.592 227.488C227.792 227.136 228.064 226.856 228.408 226.648C228.752 226.432 229.136 226.324 229.56 226.324C229.976 226.324 230.352 226.432 230.688 226.648C231.024 226.856 231.292 227.14 231.492 227.5C231.7 227.852 231.804 228.24 231.804 228.664C231.804 229.088 231.7 229.48 231.492 229.84C231.292 230.192 231.024 230.476 230.688 230.692C230.352 230.9 229.976 231.004 229.56 231.004Z" fill="#24609B"/>
<path d="M282.923 260H284.561V249.57H280.921V250.97H282.923V260ZM286.641 260H293.571V258.6H288.825L291.345 255.912C292.036 255.165 292.545 254.526 292.871 253.994C293.207 253.453 293.375 252.897 293.375 252.328C293.375 251.749 293.235 251.241 292.955 250.802C292.685 250.363 292.302 250.023 291.807 249.78C291.313 249.528 290.734 249.402 290.071 249.402C289.502 249.402 288.975 249.514 288.489 249.738C288.004 249.962 287.593 250.279 287.257 250.69C286.921 251.091 286.693 251.567 286.571 252.118L288.027 252.538C288.167 251.997 288.419 251.586 288.783 251.306C289.147 251.017 289.581 250.872 290.085 250.872C290.58 250.872 290.977 251.012 291.275 251.292C291.583 251.572 291.737 251.959 291.737 252.454C291.737 252.762 291.667 253.056 291.527 253.336C291.387 253.616 291.154 253.943 290.827 254.316C290.501 254.68 290.057 255.161 289.497 255.758L286.641 258.81V260ZM297.935 253.994C298.364 253.994 298.751 253.891 299.097 253.686C299.451 253.481 299.731 253.205 299.937 252.86C300.142 252.515 300.245 252.127 300.245 251.698C300.245 251.269 300.142 250.881 299.937 250.536C299.731 250.191 299.451 249.915 299.097 249.71C298.751 249.505 298.364 249.402 297.935 249.402C297.505 249.402 297.113 249.505 296.759 249.71C296.413 249.915 296.138 250.191 295.933 250.536C295.727 250.881 295.625 251.269 295.625 251.698C295.625 252.127 295.727 252.515 295.933 252.86C296.138 253.205 296.413 253.481 296.759 253.686C297.113 253.891 297.505 253.994 297.935 253.994ZM297.921 252.86C297.603 252.86 297.328 252.753 297.095 252.538C296.871 252.323 296.759 252.043 296.759 251.698C296.759 251.362 296.871 251.087 297.095 250.872C297.328 250.648 297.603 250.536 297.921 250.536C298.247 250.536 298.523 250.648 298.747 250.872C298.98 251.087 299.097 251.362 299.097 251.698C299.097 252.043 298.98 252.323 298.747 252.538C298.523 252.753 298.247 252.86 297.921 252.86Z" fill="#24609B"/>
<path d="M276.529 232H277.489V224.896L282.409 232H283.249V223.06H282.289V230.116L277.369 223.06H276.529V232ZM285.233 224.38H286.133V223.06H285.233V224.38ZM285.233 232H286.133V225.568H285.233V232ZM291.023 234.64C291.615 234.64 292.139 234.512 292.595 234.256C293.059 234.008 293.419 233.664 293.675 233.224C293.939 232.792 294.071 232.3 294.071 231.748V225.568H293.171V226.54C292.915 226.196 292.587 225.924 292.187 225.724C291.787 225.524 291.351 225.424 290.879 225.424C290.271 225.424 289.727 225.568 289.247 225.856C288.775 226.144 288.399 226.532 288.119 227.02C287.847 227.508 287.711 228.056 287.711 228.664C287.711 229.264 287.847 229.812 288.119 230.308C288.399 230.796 288.779 231.184 289.259 231.472C289.739 231.76 290.279 231.904 290.879 231.904C291.351 231.904 291.791 231.8 292.199 231.592C292.607 231.384 292.931 231.092 293.171 230.716V231.748C293.171 232.18 293.071 232.544 292.871 232.84C292.671 233.136 292.407 233.36 292.079 233.512C291.751 233.664 291.391 233.74 290.999 233.74C290.487 233.74 290.067 233.628 289.739 233.404C289.411 233.18 289.183 232.916 289.055 232.612L288.227 233.056C288.443 233.52 288.795 233.9 289.283 234.196C289.779 234.492 290.359 234.64 291.023 234.64ZM290.927 231.004C290.495 231.004 290.107 230.9 289.763 230.692C289.427 230.476 289.159 230.192 288.959 229.84C288.767 229.48 288.671 229.088 288.671 228.664C288.671 228.232 288.767 227.84 288.959 227.488C289.159 227.136 289.431 226.856 289.775 226.648C290.119 226.432 290.503 226.324 290.927 226.324C291.343 226.324 291.719 226.432 292.055 226.648C292.391 226.856 292.659 227.14 292.859 227.5C293.067 227.852 293.171 228.24 293.171 228.664C293.171 229.088 293.067 229.48 292.859 229.84C292.659 230.192 292.391 230.476 292.055 230.692C291.719 230.9 291.343 231.004 290.927 231.004ZM295.92 232H296.82V228.172C296.82 227.596 296.98 227.144 297.3 226.816C297.628 226.488 298.032 226.324 298.512 226.324C298.992 226.324 299.388 226.488 299.7 226.816C300.02 227.136 300.18 227.588 300.18 228.172V232H301.08V227.824C301.08 227.368 300.972 226.96 300.756 226.6C300.548 226.232 300.26 225.944 299.892 225.736C299.532 225.528 299.124 225.424 298.668 225.424C298.268 225.424 297.908 225.508 297.588 225.676C297.268 225.844 297.012 226.072 296.82 226.36V223.06H295.92V232ZM305.259 232.072C305.331 232.072 305.427 232.068 305.547 232.06C305.667 232.052 305.775 232.036 305.871 232.012V231.196C305.807 231.204 305.731 231.212 305.643 231.22C305.555 231.228 305.479 231.232 305.415 231.232C305.015 231.232 304.739 231.128 304.587 230.92C304.435 230.712 304.359 230.448 304.359 230.128V226.468H305.775V225.568H304.359V224.08H303.459V224.62C303.459 224.892 303.379 225.12 303.219 225.304C303.059 225.48 302.843 225.568 302.571 225.568H302.271V226.468H303.459V230.128C303.459 230.752 303.615 231.232 303.927 231.568C304.239 231.904 304.683 232.072 305.259 232.072Z" fill="#24609B"/>
<path d="M14 139.998C14 139.998 21.5 124.498 51 123.998C80.5 123.498 101.5 136.998 131 136.998C160.5 136.998 181 111.498 211 110.998C241 110.498 262.5 144.498 291 144.498C319.5 144.498 326.5 132.498 326.5 132.498" stroke="url(#paint0_linear_135_259)" stroke-width="2"/>
<circle cx="51" cy="124" r="6" fill="#BADCFF"/>
<circle cx="51" cy="124" r="4" fill="white"/>
<circle cx="131" cy="137" r="6" fill="#BADCFF"/>
<circle cx="131" cy="137" r="4" fill="white"/>
<circle cx="211" cy="111" r="6" fill="#BADCFF"/>
<circle cx="211" cy="111" r="4" fill="white"/>
<circle cx="291" cy="144" r="6" fill="#BADCFF"/>
<circle cx="291" cy="144" r="4" fill="white"/>
<path d="M28.18 46H30.52V33.2H34.42V31.1H24.22V33.2H28.18V46ZM39.6383 46.24C40.7449 46.24 41.7049 45.9867 42.5183 45.48C43.3449 44.9733 43.9249 44.3333 44.2583 43.56L42.4183 42.66C42.1516 43.1133 41.7849 43.4933 41.3183 43.8C40.8649 44.0933 40.3116 44.24 39.6583 44.24C38.8049 44.24 38.0783 43.9733 37.4783 43.44C36.8783 42.8933 36.5449 42.16 36.4783 41.24H44.5183C44.5583 41.08 44.5849 40.9067 44.5983 40.72C44.6116 40.5333 44.6183 40.3533 44.6183 40.18C44.6183 39.2467 44.4116 38.3867 43.9983 37.6C43.5983 36.8 43.0116 36.16 42.2383 35.68C41.4783 35.1867 40.5516 34.94 39.4583 34.94C38.4449 34.94 37.5316 35.1867 36.7183 35.68C35.9183 36.16 35.2849 36.8267 34.8183 37.68C34.3516 38.52 34.1183 39.48 34.1183 40.56C34.1183 41.6267 34.3516 42.5933 34.8183 43.46C35.2983 44.3133 35.9516 44.9933 36.7783 45.5C37.6049 45.9933 38.5583 46.24 39.6383 46.24ZM39.4583 36.84C40.2183 36.84 40.8583 37.08 41.3783 37.56C41.8983 38.04 42.1783 38.6667 42.2183 39.44H36.5183C36.6516 38.6133 36.9916 37.9733 37.5383 37.52C38.0849 37.0667 38.7249 36.84 39.4583 36.84ZM46.8239 46H49.0839V39.62C49.0839 38.82 49.2972 38.1933 49.7239 37.74C50.1506 37.2733 50.7039 37.04 51.3839 37.04C52.0639 37.04 52.6172 37.2733 53.0439 37.74C53.4706 38.1933 53.6839 38.82 53.6839 39.62V46H55.9239V39.62C55.9239 38.82 56.1372 38.1933 56.5639 37.74C57.0039 37.2733 57.5639 37.04 58.2439 37.04C58.9239 37.04 59.4706 37.2733 59.8839 37.74C60.3106 38.1933 60.5239 38.82 60.5239 39.62V46H62.7839V39C62.7839 38.2 62.6039 37.5 62.2439 36.9C61.8972 36.2867 61.4172 35.8067 60.8039 35.46C60.2039 35.1133 59.5239 34.94 58.7639 34.94C58.0439 34.94 57.3906 35.0933 56.8039 35.4C56.2172 35.7067 55.7439 36.1667 55.3839 36.78C55.0639 36.22 54.6039 35.7733 54.0039 35.44C53.4039 35.1067 52.7372 34.94 52.0039 34.94C51.3506 34.94 50.7572 35.0733 50.2239 35.34C49.6906 35.6067 49.2772 36 48.9839 36.52V35.18H46.8239V46ZM65.2028 50H67.4628V44.74C67.8628 45.22 68.3695 45.5933 68.9828 45.86C69.5961 46.1133 70.2628 46.24 70.9828 46.24C72.0228 46.24 72.9495 45.9933 73.7628 45.5C74.5761 44.9933 75.2161 44.3133 75.6828 43.46C76.1628 42.6067 76.4028 41.6467 76.4028 40.58C76.4028 39.5133 76.1628 38.5533 75.6828 37.7C75.2161 36.8467 74.5695 36.1733 73.7428 35.68C72.9295 35.1867 72.0095 34.94 70.9828 34.94C70.2095 34.94 69.5095 35.08 68.8828 35.36C68.2695 35.64 67.7628 36.0333 67.3628 36.54V35.18H65.2028V50ZM70.7628 44.14C70.1361 44.14 69.5695 43.9867 69.0628 43.68C68.5695 43.3733 68.1761 42.9533 67.8828 42.42C67.6028 41.8733 67.4628 41.26 67.4628 40.58C67.4628 39.9 67.6028 39.2933 67.8828 38.76C68.1761 38.2267 68.5695 37.8067 69.0628 37.5C69.5695 37.1933 70.1361 37.04 70.7628 37.04C71.4028 37.04 71.9695 37.1933 72.4628 37.5C72.9561 37.8067 73.3428 38.2267 73.6228 38.76C73.9161 39.2933 74.0628 39.9 74.0628 40.58C74.0628 41.26 73.9161 41.8733 73.6228 42.42C73.3428 42.9533 72.9561 43.3733 72.4628 43.68C71.9695 43.9867 71.4028 44.14 70.7628 44.14ZM83.6813 46.24C84.7879 46.24 85.7479 45.9867 86.5613 45.48C87.3879 44.9733 87.9679 44.3333 88.3012 43.56L86.4613 42.66C86.1946 43.1133 85.8279 43.4933 85.3613 43.8C84.9079 44.0933 84.3546 44.24 83.7013 44.24C82.8479 44.24 82.1213 43.9733 81.5213 43.44C80.9213 42.8933 80.5879 42.16 80.5213 41.24H88.5613C88.6013 41.08 88.6279 40.9067 88.6413 40.72C88.6546 40.5333 88.6613 40.3533 88.6613 40.18C88.6613 39.2467 88.4546 38.3867 88.0413 37.6C87.6413 36.8 87.0546 36.16 86.2813 35.68C85.5213 35.1867 84.5946 34.94 83.5013 34.94C82.4879 34.94 81.5746 35.1867 80.7613 35.68C79.9613 36.16 79.3279 36.8267 78.8613 37.68C78.3946 38.52 78.1613 39.48 78.1613 40.56C78.1613 41.6267 78.3946 42.5933 78.8613 43.46C79.3413 44.3133 79.9946 44.9933 80.8213 45.5C81.6479 45.9933 82.6013 46.24 83.6813 46.24ZM83.5013 36.84C84.2613 36.84 84.9013 37.08 85.4213 37.56C85.9413 38.04 86.2213 38.6667 86.2613 39.44H80.5613C80.6946 38.6133 81.0346 37.9733 81.5813 37.52C82.1279 37.0667 82.7679 36.84 83.5013 36.84ZM90.8669 46H93.1269V39.76C93.1269 38.9067 93.3535 38.2533 93.8069 37.8C94.2735 37.3333 94.8802 37.1 95.6269 37.1H96.5669V35.04H95.9069C95.2535 35.04 94.6802 35.16 94.1869 35.4C93.6935 35.64 93.3069 36.0267 93.0269 36.56V35.18H90.8669V46ZM101.353 46.24C102.1 46.24 102.773 46.1133 103.373 45.86C103.973 45.5933 104.473 45.22 104.873 44.74V46H107.033V38.72C107.033 37.9733 106.846 37.32 106.473 36.76C106.1 36.1867 105.586 35.74 104.933 35.42C104.28 35.1 103.526 34.94 102.673 34.94C101.993 34.94 101.346 35.06 100.733 35.3C100.133 35.5267 99.6063 35.84 99.153 36.24C98.713 36.64 98.3863 37.1067 98.173 37.64L100.053 38.58C100.266 38.0733 100.593 37.6667 101.033 37.36C101.486 37.0533 102.013 36.9 102.613 36.9C103.266 36.9 103.786 37.0733 104.173 37.42C104.573 37.7533 104.773 38.1867 104.773 38.72V39.14L101.333 39.7C100.08 39.9133 99.153 40.3267 98.553 40.94C97.9663 41.54 97.673 42.2733 97.673 43.14C97.673 44.0733 98.013 44.8267 98.693 45.4C99.373 45.96 100.26 46.24 101.353 46.24ZM100.033 43.06C100.033 42.6333 100.173 42.28 100.453 42C100.733 41.72 101.173 41.5333 101.773 41.44L104.773 40.92V41.5C104.773 42.0467 104.64 42.5467 104.373 43C104.12 43.4533 103.766 43.8133 103.313 44.08C102.86 44.3333 102.326 44.46 101.713 44.46C101.22 44.46 100.813 44.3333 100.493 44.08C100.186 43.8133 100.033 43.4733 100.033 43.06ZM114.16 46.12C114.347 46.12 114.553 46.1067 114.78 46.08C115.007 46.0533 115.207 46.0267 115.38 46V44.06C115.127 44.1 114.88 44.12 114.64 44.12C113.987 44.12 113.52 43.9667 113.24 43.66C112.973 43.34 112.84 42.9067 112.84 42.36V37.22H115.3V35.18H112.84V32.7H110.58V33.54C110.58 34.0467 110.44 34.4467 110.16 34.74C109.88 35.0333 109.487 35.18 108.98 35.18H108.68V37.22H110.58V42.46C110.58 43.62 110.893 44.52 111.52 45.16C112.147 45.8 113.027 46.12 114.16 46.12ZM121.446 46.24C122.126 46.24 122.732 46.1067 123.266 45.84C123.799 45.56 124.219 45.1667 124.526 44.66V46H126.666V35.18H124.426V41.56C124.426 42.3467 124.199 42.9733 123.746 43.44C123.292 43.9067 122.712 44.14 122.006 44.14C121.312 44.14 120.739 43.9133 120.286 43.46C119.846 43.0067 119.626 42.4067 119.626 41.66V35.18H117.366V41.86C117.366 42.7267 117.532 43.4933 117.866 44.16C118.212 44.8133 118.692 45.3267 119.306 45.7C119.919 46.06 120.632 46.24 121.446 46.24ZM129.304 46H131.564V39.76C131.564 38.9067 131.791 38.2533 132.244 37.8C132.711 37.3333 133.318 37.1 134.064 37.1H135.004V35.04H134.344C133.691 35.04 133.118 35.16 132.624 35.4C132.131 35.64 131.744 36.0267 131.464 36.56V35.18H129.304V46ZM141.63 46.24C142.737 46.24 143.697 45.9867 144.51 45.48C145.337 44.9733 145.917 44.3333 146.25 43.56L144.41 42.66C144.144 43.1133 143.777 43.4933 143.31 43.8C142.857 44.0933 142.304 44.24 141.65 44.24C140.797 44.24 140.07 43.9733 139.47 43.44C138.87 42.8933 138.537 42.16 138.47 41.24H146.51C146.55 41.08 146.577 40.9067 146.59 40.72C146.604 40.5333 146.61 40.3533 146.61 40.18C146.61 39.2467 146.404 38.3867 145.99 37.6C145.59 36.8 145.004 36.16 144.23 35.68C143.47 35.1867 142.544 34.94 141.45 34.94C140.437 34.94 139.524 35.1867 138.71 35.68C137.91 36.16 137.277 36.8267 136.81 37.68C136.344 38.52 136.11 39.48 136.11 40.56C136.11 41.6267 136.344 42.5933 136.81 43.46C137.29 44.3133 137.944 44.9933 138.77 45.5C139.597 45.9933 140.55 46.24 141.63 46.24ZM141.45 36.84C142.21 36.84 142.85 37.08 143.37 37.56C143.89 38.04 144.17 38.6667 144.21 39.44H138.51C138.644 38.6133 138.984 37.9733 139.53 37.52C140.077 37.0667 140.717 36.84 141.45 36.84Z" fill="#24609B"/>
<defs>
<filter id="filter0_b_135_259" x="-12" y="-12" width="364" height="320" filterUnits="userSpaceOnUse" color-interpolation-filters="sRGB">
<feFlood flood-opacity="0" result="BackgroundImageFix"/>
<feGaussianBlur in="BackgroundImageFix" stdDeviation="6"/>
<feComposite in2="SourceAlpha" operator="in" result="effect1_backgroundBlur_135_259"/>
<feBlend mode="normal" in="SourceGraphic" in2="effect1_backgroundBlur_135_259" result="shape"/>
</filter>
<linearGradient id="paint0_linear_135_259" x1="14" y1="142.498" x2="329" y2="144.998" gradientUnits="userSpaceOnUse">
<stop stop-color="#24609B" stop-opacity="0.11"/>
<stop offset="0.484375" stop-color="#24609B"/>
<stop offset="1" stop-color="#24609B" stop-opacity="0.1"/>
</linearGradient>
</defs>
</svg>
